<mxfile host="65bd71144e">
    <diagram id="6a731a19-8d31-9384-78a2-239565b7b9f0" name="Page-1">
        <mxGraphModel dx="745" dy="539" grid="1" gridSize="10" guides="1" tooltips="1" connect="1" arrows="1" fold="1" page="1" pageScale="1" pageWidth="1169" pageHeight="827" background="#ffffff" math="0" shadow="0">
            <root>
                <mxCell id="0"/>
                <mxCell id="1" parent="0"/>
                <mxCell id="gwQa9RxjE0BeBEywbN8O-1791" style="edgeStyle=orthogonalEdgeStyle;rounded=0;orthogonalLoop=1;jettySize=auto;html=1;exitX=0.25;exitY=1;exitDx=0;exitDy=0;entryX=0;entryY=0.5;entryDx=0;entryDy=0;endArrow=blockThin;endFill=1;strokeColor=#000000;" parent="1" source="gwQa9RxjE0BeBEywbN8O-1779" target="gwQa9RxjE0BeBEywbN8O-1781" edge="1">
                    <mxGeometry relative="1" as="geometry">
                        <Array as="points">
                            <mxPoint x="120" y="164"/>
                            <mxPoint x="120" y="214"/>
                        </Array>
                    </mxGeometry>
                </mxCell>
                <mxCell id="gwQa9RxjE0BeBEywbN8O-1792" style="edgeStyle=orthogonalEdgeStyle;rounded=0;orthogonalLoop=1;jettySize=auto;html=1;exitX=0;exitY=1;exitDx=0;exitDy=0;entryX=0;entryY=0.5;entryDx=0;entryDy=0;endArrow=blockThin;endFill=1;strokeColor=#000000;" parent="1" source="gwQa9RxjE0BeBEywbN8O-1779" target="gwQa9RxjE0BeBEywbN8O-1782" edge="1">
                    <mxGeometry relative="1" as="geometry">
                        <Array as="points">
                            <mxPoint x="120" y="164"/>
                            <mxPoint x="120" y="294"/>
                        </Array>
                    </mxGeometry>
                </mxCell>
                <mxCell id="gwQa9RxjE0BeBEywbN8O-1795" style="edgeStyle=orthogonalEdgeStyle;rounded=0;orthogonalLoop=1;jettySize=auto;html=1;exitX=0.25;exitY=1;exitDx=0;exitDy=0;entryX=0;entryY=0.5;entryDx=0;entryDy=0;endArrow=blockThin;endFill=1;strokeColor=#000000;" parent="1" source="gwQa9RxjE0BeBEywbN8O-1779" target="gwQa9RxjE0BeBEywbN8O-1793" edge="1">
                    <mxGeometry relative="1" as="geometry">
                        <Array as="points">
                            <mxPoint x="120" y="164"/>
                            <mxPoint x="120" y="384"/>
                        </Array>
                    </mxGeometry>
                </mxCell>
                <mxCell id="gwQa9RxjE0BeBEywbN8O-1802" style="edgeStyle=orthogonalEdgeStyle;rounded=0;orthogonalLoop=1;jettySize=auto;html=1;exitX=0.25;exitY=1;exitDx=0;exitDy=0;entryX=0;entryY=0.5;entryDx=0;entryDy=0;endArrow=blockThin;endFill=1;strokeColor=#000000;" parent="1" source="gwQa9RxjE0BeBEywbN8O-1779" target="gwQa9RxjE0BeBEywbN8O-1800" edge="1">
                    <mxGeometry relative="1" as="geometry">
                        <Array as="points">
                            <mxPoint x="120" y="164"/>
                            <mxPoint x="120" y="470"/>
                        </Array>
                    </mxGeometry>
                </mxCell>
                <mxCell id="gwQa9RxjE0BeBEywbN8O-1779" value="&lt;font color=&quot;#000000&quot;&gt;home&lt;br&gt;(visitor\index.ejs)&lt;br&gt;/&lt;br&gt;&lt;/font&gt;" style="rounded=1;whiteSpace=wrap;html=1;fillColor=#dae8fc;strokeColor=#6c8ebf;" parent="1" vertex="1">
                    <mxGeometry x="70" y="104" width="180" height="60" as="geometry"/>
                </mxCell>
                <mxCell id="gwQa9RxjE0BeBEywbN8O-1781" value="&lt;font color=&quot;#000000&quot;&gt;login&lt;br&gt;(auth\login.ejs)&lt;br&gt;/login&lt;br&gt;&lt;/font&gt;" style="rounded=1;whiteSpace=wrap;html=1;fillColor=#dae8fc;strokeColor=#6c8ebf;" parent="1" vertex="1">
                    <mxGeometry x="150" y="184" width="180" height="60" as="geometry"/>
                </mxCell>
                <mxCell id="gwQa9RxjE0BeBEywbN8O-1782" value="&lt;font color=&quot;#000000&quot;&gt;sign up&lt;br&gt;(auth\signup.ejs)&lt;br&gt;/signup&lt;br&gt;&lt;/font&gt;" style="rounded=1;whiteSpace=wrap;html=1;fillColor=#dae8fc;strokeColor=#6c8ebf;" parent="1" vertex="1">
                    <mxGeometry x="150" y="264" width="180" height="60" as="geometry"/>
                </mxCell>
                <mxCell id="gwQa9RxjE0BeBEywbN8O-1793" value="&lt;font color=&quot;#000000&quot;&gt;search results&lt;br&gt;(results.ejs)&lt;br&gt;/searchRecipes&lt;br&gt;&lt;/font&gt;" style="rounded=1;whiteSpace=wrap;html=1;fillColor=#dae8fc;strokeColor=#6c8ebf;" parent="1" vertex="1">
                    <mxGeometry x="150" y="354" width="180" height="60" as="geometry"/>
                </mxCell>
                <mxCell id="gwQa9RxjE0BeBEywbN8O-1796" value="&lt;font color=&quot;#000000&quot;&gt;search results&lt;br&gt;(results.ejs)&lt;br&gt;/member/searchRecipes&lt;br&gt;&lt;/font&gt;" style="rounded=1;whiteSpace=wrap;html=1;fillColor=#ffcc99;strokeColor=#36393d;" parent="1" vertex="1">
                    <mxGeometry x="660" y="264" width="180" height="60" as="geometry"/>
                </mxCell>
                <mxCell id="gwQa9RxjE0BeBEywbN8O-1797" value="" style="endArrow=none;html=1;" parent="1" edge="1">
                    <mxGeometry width="50" height="50" relative="1" as="geometry">
                        <mxPoint x="440" y="766" as="sourcePoint"/>
                        <mxPoint x="440" y="40" as="targetPoint"/>
                    </mxGeometry>
                </mxCell>
                <mxCell id="gwQa9RxjE0BeBEywbN8O-1798" value="&lt;b&gt;&lt;font style=&quot;font-size: 16px&quot;&gt;Visitors / No login&lt;/font&gt;&lt;/b&gt;" style="text;html=1;strokeColor=none;fillColor=none;align=center;verticalAlign=middle;whiteSpace=wrap;rounded=0;" parent="1" vertex="1">
                    <mxGeometry x="100" y="40" width="220" height="40" as="geometry"/>
                </mxCell>
                <mxCell id="gwQa9RxjE0BeBEywbN8O-1799" value="&lt;b&gt;&lt;font style=&quot;font-size: 16px&quot;&gt;User&lt;/font&gt;&lt;/b&gt;" style="text;html=1;strokeColor=none;fillColor=none;align=center;verticalAlign=middle;whiteSpace=wrap;rounded=0;" parent="1" vertex="1">
                    <mxGeometry x="560" y="40" width="220" height="40" as="geometry"/>
                </mxCell>
                <mxCell id="gwQa9RxjE0BeBEywbN8O-1800" value="&lt;font color=&quot;#000000&quot;&gt;recipes&lt;br&gt;(member\recipes.ejs)&lt;br&gt;/member/recipes?id=&amp;lt;id&amp;gt;&lt;br&gt;&lt;/font&gt;" style="rounded=1;whiteSpace=wrap;html=1;fillColor=#dae8fc;strokeColor=#6c8ebf;" parent="1" vertex="1">
                    <mxGeometry x="150" y="440" width="180" height="60" as="geometry"/>
                </mxCell>
                <mxCell id="gwQa9RxjE0BeBEywbN8O-1803" value="" style="endArrow=none;html=1;" parent="1" edge="1">
                    <mxGeometry width="50" height="50" relative="1" as="geometry">
                        <mxPoint x="880" y="766" as="sourcePoint"/>
                        <mxPoint x="880" y="40" as="targetPoint"/>
                    </mxGeometry>
                </mxCell>
                <mxCell id="gwQa9RxjE0BeBEywbN8O-1804" value="&lt;b&gt;&lt;font style=&quot;font-size: 16px&quot;&gt;Admin&lt;/font&gt;&lt;/b&gt;" style="text;html=1;strokeColor=none;fillColor=none;align=center;verticalAlign=middle;whiteSpace=wrap;rounded=0;" parent="1" vertex="1">
                    <mxGeometry x="1040" y="40" width="220" height="40" as="geometry"/>
                </mxCell>
                <mxCell id="PUUP4kWYyp20goEuvDwx-1" value="&lt;span style=&quot;color: rgb(0 , 0 , 0)&quot;&gt;member profile&lt;/span&gt;&lt;br style=&quot;color: rgb(0 , 0 , 0)&quot;&gt;&lt;span style=&quot;color: rgb(0 , 0 , 0)&quot;&gt;(member\profile.ejs)&lt;br&gt;/member/profile&lt;br&gt;&lt;/span&gt;" style="rounded=1;whiteSpace=wrap;html=1;fillColor=#ffcc99;strokeColor=#36393d;" parent="1" vertex="1">
                    <mxGeometry x="660" y="184" width="180" height="60" as="geometry"/>
                </mxCell>
                <mxCell id="PUUP4kWYyp20goEuvDwx-2" value="&lt;font color=&quot;#000000&quot;&gt;recipe builder&lt;br&gt;(member\builder.ejs)&lt;br&gt;/member/recipe/builder&lt;br&gt;&lt;/font&gt;" style="rounded=1;whiteSpace=wrap;html=1;fillColor=#ffcc99;strokeColor=#36393d;" parent="1" vertex="1">
                    <mxGeometry x="660" y="354" width="180" height="60" as="geometry"/>
                </mxCell>
                <mxCell id="PUUP4kWYyp20goEuvDwx-3" value="&lt;font color=&quot;#000000&quot;&gt;recipe page&lt;br&gt;(member\recipe.ejs)&lt;br&gt;/member/recipes?id=&amp;lt;id&amp;gt;&lt;br&gt;&lt;/font&gt;" style="rounded=1;whiteSpace=wrap;html=1;fillColor=#ffcc99;strokeColor=#36393d;" parent="1" vertex="1">
                    <mxGeometry x="660" y="444" width="180" height="60" as="geometry"/>
                </mxCell>
                <mxCell id="PUUP4kWYyp20goEuvDwx-10" value="&lt;font color=&quot;#000000&quot;&gt;user management&lt;br&gt;(admin\users.ejs)&lt;br&gt;&lt;/font&gt;&lt;span style=&quot;color: rgb(0 , 0 , 0)&quot;&gt;/admin/users&lt;/span&gt;&lt;font color=&quot;#000000&quot;&gt;&lt;br&gt;&lt;/font&gt;" style="rounded=1;whiteSpace=wrap;html=1;fillColor=#cdeb8b;strokeColor=#36393d;" parent="1" vertex="1">
                    <mxGeometry x="1146" y="184" width="180" height="60" as="geometry"/>
                </mxCell>
                <mxCell id="PUUP4kWYyp20goEuvDwx-11" value="&lt;font color=&quot;#000000&quot;&gt;category management&lt;br&gt;(admin\categories.ejs)&lt;br&gt;/admin/categories&lt;br&gt;&lt;/font&gt;" style="rounded=1;whiteSpace=wrap;html=1;fillColor=#cdeb8b;strokeColor=#36393d;" parent="1" vertex="1">
                    <mxGeometry x="1146" y="344" width="180" height="60" as="geometry"/>
                </mxCell>
                <mxCell id="PUUP4kWYyp20goEuvDwx-13" style="edgeStyle=orthogonalEdgeStyle;rounded=0;orthogonalLoop=1;jettySize=auto;html=1;exitX=0.25;exitY=1;exitDx=0;exitDy=0;entryX=0;entryY=0.5;entryDx=0;entryDy=0;strokeColor=#000000;" parent="1" source="PUUP4kWYyp20goEuvDwx-12" target="PUUP4kWYyp20goEuvDwx-3" edge="1">
                    <mxGeometry relative="1" as="geometry"/>
                </mxCell>
                <mxCell id="PUUP4kWYyp20goEuvDwx-14" style="edgeStyle=orthogonalEdgeStyle;rounded=0;orthogonalLoop=1;jettySize=auto;html=1;exitX=0.25;exitY=1;exitDx=0;exitDy=0;entryX=0;entryY=0.5;entryDx=0;entryDy=0;strokeColor=#000000;" parent="1" source="PUUP4kWYyp20goEuvDwx-12" target="PUUP4kWYyp20goEuvDwx-2" edge="1">
                    <mxGeometry relative="1" as="geometry"/>
                </mxCell>
                <mxCell id="PUUP4kWYyp20goEuvDwx-16" style="edgeStyle=orthogonalEdgeStyle;rounded=0;orthogonalLoop=1;jettySize=auto;html=1;exitX=0.25;exitY=1;exitDx=0;exitDy=0;entryX=0;entryY=0.5;entryDx=0;entryDy=0;strokeColor=#000000;" parent="1" source="PUUP4kWYyp20goEuvDwx-12" target="gwQa9RxjE0BeBEywbN8O-1796" edge="1">
                    <mxGeometry relative="1" as="geometry"/>
                </mxCell>
                <mxCell id="PUUP4kWYyp20goEuvDwx-17" style="edgeStyle=orthogonalEdgeStyle;rounded=0;orthogonalLoop=1;jettySize=auto;html=1;exitX=0.25;exitY=1;exitDx=0;exitDy=0;entryX=0;entryY=0.5;entryDx=0;entryDy=0;strokeColor=#000000;" parent="1" source="PUUP4kWYyp20goEuvDwx-12" target="PUUP4kWYyp20goEuvDwx-1" edge="1">
                    <mxGeometry relative="1" as="geometry"/>
                </mxCell>
                <mxCell id="PUUP4kWYyp20goEuvDwx-12" value="&lt;font color=&quot;#000000&quot;&gt;home&lt;br&gt;(member\index.ejs)&lt;br&gt;/member&lt;br&gt;&lt;/font&gt;" style="rounded=1;whiteSpace=wrap;html=1;fillColor=#ffcc99;strokeColor=#36393d;" parent="1" vertex="1">
                    <mxGeometry x="580" y="104" width="180" height="60" as="geometry"/>
                </mxCell>
                <mxCell id="PUUP4kWYyp20goEuvDwx-21" style="edgeStyle=orthogonalEdgeStyle;rounded=0;orthogonalLoop=1;jettySize=auto;html=1;exitX=0.25;exitY=1;exitDx=0;exitDy=0;entryX=0;entryY=0.5;entryDx=0;entryDy=0;strokeColor=#000000;" parent="1" source="PUUP4kWYyp20goEuvDwx-18" target="PUUP4kWYyp20goEuvDwx-19" edge="1">
                    <mxGeometry relative="1" as="geometry"/>
                </mxCell>
                <mxCell id="PUUP4kWYyp20goEuvDwx-22" style="edgeStyle=orthogonalEdgeStyle;rounded=0;orthogonalLoop=1;jettySize=auto;html=1;exitX=0.25;exitY=1;exitDx=0;exitDy=0;entryX=0;entryY=0.5;entryDx=0;entryDy=0;strokeColor=#000000;" parent="1" source="PUUP4kWYyp20goEuvDwx-18" target="PUUP4kWYyp20goEuvDwx-11" edge="1">
                    <mxGeometry relative="1" as="geometry"/>
                </mxCell>
                <mxCell id="PUUP4kWYyp20goEuvDwx-23" style="edgeStyle=orthogonalEdgeStyle;rounded=0;orthogonalLoop=1;jettySize=auto;html=1;exitX=0.25;exitY=1;exitDx=0;exitDy=0;entryX=0;entryY=0.5;entryDx=0;entryDy=0;strokeColor=#000000;" parent="1" source="PUUP4kWYyp20goEuvDwx-18" target="PUUP4kWYyp20goEuvDwx-20" edge="1">
                    <mxGeometry relative="1" as="geometry"/>
                </mxCell>
                <mxCell id="PUUP4kWYyp20goEuvDwx-24" style="edgeStyle=orthogonalEdgeStyle;rounded=0;orthogonalLoop=1;jettySize=auto;html=1;exitX=0.25;exitY=1;exitDx=0;exitDy=0;entryX=0;entryY=0.5;entryDx=0;entryDy=0;strokeColor=#000000;" parent="1" source="PUUP4kWYyp20goEuvDwx-18" target="PUUP4kWYyp20goEuvDwx-10" edge="1">
                    <mxGeometry relative="1" as="geometry"/>
                </mxCell>
                <mxCell id="PUUP4kWYyp20goEuvDwx-18" value="&lt;span style=&quot;color: rgb(0 , 0 , 0)&quot;&gt;index/admin home&lt;/span&gt;&lt;br style=&quot;color: rgb(0 , 0 , 0)&quot;&gt;&lt;span style=&quot;color: rgb(0 , 0 , 0)&quot;&gt;(admin\index.ejs)&lt;br&gt;/admin&lt;br&gt;&lt;/span&gt;" style="rounded=1;whiteSpace=wrap;html=1;fillColor=#cdeb8b;strokeColor=#36393d;" parent="1" vertex="1">
                    <mxGeometry x="1060" y="104" width="180" height="60" as="geometry"/>
                </mxCell>
                <mxCell id="PUUP4kWYyp20goEuvDwx-19" value="&lt;font color=&quot;#000000&quot;&gt;ingredients management&lt;br&gt;(admin\ingredients.ejs)&lt;br&gt;/admin/ingredients&lt;br&gt;&lt;/font&gt;" style="rounded=1;whiteSpace=wrap;html=1;fillColor=#cdeb8b;strokeColor=#36393d;" parent="1" vertex="1">
                    <mxGeometry x="1146" y="424" width="180" height="60" as="geometry"/>
                </mxCell>
                <mxCell id="PUUP4kWYyp20goEuvDwx-20" value="&lt;font color=&quot;#000000&quot;&gt;measurement management&lt;br&gt;(admin\measurements.ejs)&lt;br&gt;/admin/measurements&lt;br&gt;&lt;/font&gt;" style="rounded=1;whiteSpace=wrap;html=1;fillColor=#cdeb8b;strokeColor=#36393d;" parent="1" vertex="1">
                    <mxGeometry x="1146" y="264" width="180" height="60" as="geometry"/>
                </mxCell>
            </root>
        </mxGraphModel>
    </diagram>
</mxfile>